<svg xmlns="http://www.w3.org/2000/svg" viewBox="0 0 156 48"><defs><style>.cls-1{fill:#fff;}</style></defs><title>white</title><g id="white"><path id="hyphen" class="cls-1" d="M119.22,22.94v2.12H105.06V22.94Z"/><g id="MagAO"><path class="cls-1" d="M7.17,34.12V13.87H10.5l7.44,16.89,7.29-16.89h3.18V34.12H26.08V17.51l-7.2,16.61H16.82L9.51,17.51V34.12Z"/><path class="cls-1" d="M31.08,29.63q0-4.57,6-4.57a26.65,26.65,0,0,1,3.88.28v-1.4q0-2.57-4-2.56a16.69,16.69,0,0,0-4.7.7V20a16.71,16.71,0,0,1,4.7-.71q6.63,0,6.63,4.62V34.12H42.14l-.91-1.47a8.61,8.61,0,0,1-4.84,1.47Q31.08,34.12,31.08,29.63Zm6-2.45c-2.27,0-3.41.8-3.41,2.41S34.59,32,36.39,32A7.37,7.37,0,0,0,41,30.55V27.46A28.13,28.13,0,0,0,37.11,27.18Z"/><path class="cls-1" d="M59.26,34.12q0,5.39-6.84,5.38a15.41,15.41,0,0,1-4.87-.71V36.67a15.79,15.79,0,0,0,4.9.71q4.19,0,4.19-3.26v-.71a9.18,9.18,0,0,1-3.6.71q-7,0-7-7.52,0-7.35,7.43-7.35a27.36,27.36,0,0,1,5.84.61ZM56.64,21.77a14.22,14.22,0,0,0-3.33-.34c-3.16,0-4.74,1.72-4.74,5.14s1.49,5.28,4.49,5.28a8,8,0,0,0,3.58-.76Z"/><path class="cls-1" d="M64.45,34.12H61.74l8.59-20.25h2.9l8.64,20.25H79l-2.62-6.37h-6.7l.72-2.13h5.1l-3.78-9.17Z"/><path class="cls-1" d="M81,24q0-10.29,10.17-10.29T101.2,24q0,10.25-10,10.24Q81,34.26,81,24Zm10.17,8.12q7.25,0,7.25-8.2t-7.25-8.09q-7.41,0-7.4,8.09T91.19,32.14Z"/></g><path class="cls-1" d="M133.11,24a2.28,2.28,0,1,0-2.28,2.28A2.27,2.27,0,0,0,133.11,24Z"/><path class="cls-1" d="M129,27.87,112.85,42,127,25.88A4.27,4.27,0,0,0,129,27.87Z"/><path class="cls-1" d="M132.73,27.87a4.2,4.2,0,0,0,2-2L148.82,42Z"/><path class="cls-1" d="M134.71,22.1a4.14,4.14,0,0,0-2-2L148.83,6Z"/><path class="cls-1" d="M127,22.1,112.85,6,129,20.12A4.2,4.2,0,0,0,127,22.1Z"/></g></svg>